<svg width="41" height="41" viewBox="0 0 41 41" fill="none" xmlns="http://www.w3.org/2000/svg">
<path d="M40.9163 20.5C40.9163 9.22392 31.7758 0.083374 20.4997 0.083374C9.22355 0.083374 0.0830078 9.22392 0.0830078 20.5C0.0830078 31.7762 9.22355 40.9167 20.4997 40.9167C31.7758 40.9167 40.9163 31.7762 40.9163 20.5ZM11.3122 13.8524C12.0206 13.0725 13.1803 12.3334 14.8851 12.3334C17.2371 12.3334 18.752 13.9504 19.2849 15.7246C19.8014 17.4539 19.489 19.5935 18.0191 21.0697C17.5092 21.5598 16.9684 22.0167 16.4 22.4376L16.3183 22.5009C15.7467 22.9419 15.2363 23.342 14.7871 23.7871C14.2665 24.3098 13.8398 24.8794 13.5927 25.6042H17.9476C18.3537 25.6042 18.7432 25.7655 19.0303 26.0527C19.3175 26.3399 19.4788 26.7293 19.4788 27.1355C19.4788 27.5416 19.3175 27.931 19.0303 28.2182C18.7432 28.5054 18.3537 28.6667 17.9476 28.6667H11.8226C11.4165 28.6667 11.027 28.5054 10.7398 28.2182C10.4527 27.931 10.2913 27.5416 10.2913 27.1355C10.2913 24.5895 11.3612 22.8827 12.627 21.6209C13.2313 21.0166 13.8888 20.5082 14.4441 20.0774L14.4502 20.0733C15.0341 19.6221 15.4874 19.271 15.8488 18.9096C16.4041 18.3502 16.5981 17.4294 16.351 16.6025C16.1162 15.8246 15.5956 15.3959 14.8851 15.3959C14.1644 15.3959 13.7928 15.6756 13.5784 15.9124C13.453 16.0508 13.3509 16.2087 13.2763 16.38V16.3861C13.1512 16.7727 12.8776 17.0938 12.5158 17.2787C12.154 17.4637 11.7335 17.4973 11.3469 17.3722C10.9603 17.2471 10.6392 16.9736 10.4542 16.6118C10.2693 16.2499 10.2357 15.8295 10.3608 15.4428L10.4322 15.2468C10.642 14.7347 10.939 14.2629 11.3101 13.8524H11.3122ZM23.0518 12.3334C23.4579 12.3334 23.8474 12.4947 24.1345 12.7819C24.4217 13.069 24.583 13.4585 24.583 13.8646V19.4792H27.6455V13.8646C27.6455 13.4585 27.8068 13.069 28.094 12.7819C28.3812 12.4947 28.7706 12.3334 29.1768 12.3334C29.5829 12.3334 29.9724 12.4947 30.2595 12.7819C30.5467 13.069 30.708 13.4585 30.708 13.8646V27.0742C30.708 27.4803 30.5467 27.8698 30.2595 28.157C29.9724 28.4441 29.5829 28.6055 29.1768 28.6055C28.7706 28.6055 28.3812 28.4441 28.094 28.157C27.8068 27.8698 27.6455 27.4803 27.6455 27.0742V22.5417H23.0518C22.6456 22.5417 22.2562 22.3804 21.969 22.0932C21.6818 21.806 21.5205 21.4166 21.5205 21.0105V13.8646C21.5205 13.4585 21.6818 13.069 21.969 12.7819C22.2562 12.4947 22.6456 12.3334 23.0518 12.3334Z" fill="#E10000"/>
</svg>
