<svg width="256" height="80" viewBox="0 0 256 80" fill="none" xmlns="http://www.w3.org/2000/svg">
<path d="M0 20C0 8.95431 8.9543 0 20 0H235.769C250.101 0 259.781 14.6323 254.175 27.8228L237.175 67.8228C234.037 75.2062 226.791 80 218.769 80H20C8.95431 80 0 71.0457 0 60V20Z" fill="url(#paint0_linear_17_3)"/>
<path d="M0 20C0 8.95431 8.9543 0 20 0H235.769C250.101 0 259.781 14.6323 254.175 27.8228L237.175 67.8228C234.037 75.2062 226.791 80 218.769 80H20C8.95431 80 0 71.0457 0 60V20Z" fill="#DE0000"/>
<defs>
<linearGradient id="paint0_linear_17_3" x1="0" y1="40" x2="215.848" y2="40" gradientUnits="userSpaceOnUse">
<stop stop-color="#FFA800"/>
<stop offset="1" stop-color="#FFC700"/>
</linearGradient>
</defs>
</svg>
