<svg width="41" height="38" viewBox="0 0 41 38" fill="none" xmlns="http://www.w3.org/2000/svg">
<path d="M0.189309 17.1733C0.087699 16.0047 1.00885 15 2.18179 15H6.00033C7.10493 15 8.00033 15.8954 8.00033 17V36C8.00033 37.1046 7.10493 38 6.00033 38H3.83396C2.79655 38 1.93135 37.2068 1.84148 36.1733L0.189309 17.1733Z" fill="#FFF1F1"/>
<path d="M14 16.3745C14 15.5388 14.5194 14.7908 15.2753 14.4345C16.9238 13.6574 19.7329 12.0938 21 9.9805C22.6331 7.2569 22.9411 2.33595 22.9912 1.20878C22.9982 1.05099 22.9937 0.893011 23.0154 0.736561C23.2861 -1.21554 27.0543 1.06492 28.5 3.47612C29.2846 4.78471 29.3852 6.504 29.3027 7.8463C29.2144 9.2825 28.7933 10.6699 28.3802 12.0483L27.5 14.9845H38.3569C39.6832 14.9845 40.6421 16.2518 40.2816 17.5281L34.9113 36.5436C34.668 37.4051 33.8818 38 32.9866 38H16C14.8954 38 14 37.1046 14 36V16.3745Z" fill="#FFF1F1"/>
</svg>
