<svg width="37" height="35" viewBox="0 0 37 35" fill="none" xmlns="http://www.w3.org/2000/svg">
<path d="M0.583008 11.3333V18.5017H2.37467V29.2499H0.583008V34.6249H29.2497L34.6247 34.6267V34.6249H36.4163V29.2499H34.6247V18.5017H36.4163V11.3333L18.4997 0.583252L0.583008 11.3333ZM7.74967 29.2499V18.5017H11.333V29.2499H7.74967ZM16.708 29.2499V18.5017H20.2913V29.2499H16.708ZM29.2497 29.2499H25.6663V18.5017H29.2497V29.2499ZM22.083 11.3333C22.0829 11.8039 21.9901 12.27 21.8098 12.7048C21.6296 13.1396 21.3655 13.5347 21.0326 13.8674C20.6997 14.2002 20.3045 14.4641 19.8696 14.6441C19.4347 14.8241 18.9686 14.9167 18.4979 14.9166C18.0272 14.9165 17.5611 14.8236 17.1263 14.6434C16.6915 14.4632 16.2965 14.1991 15.9637 13.8662C15.631 13.5332 15.3671 13.1381 15.187 12.7032C15.007 12.2683 14.9144 11.8021 14.9145 11.3315C14.9148 10.3809 15.2926 9.4693 15.965 8.79729C16.6373 8.12529 17.5491 7.74789 18.4997 7.74813C19.4503 7.74837 20.3618 8.12622 21.0338 8.79856C21.7059 9.4709 22.0832 10.3827 22.083 11.3333Z" fill="#E10000"/>
</svg>
